HIERARCHY
ROOT hip
{
  OFFSET 0.0 0.0 0.0
  CHANNELS 6 Xposition Yposition Zposition Zrotation Yrotation Xrotation
  JOINT abdomen
  {
    OFFSET 0.0 20.6881 -0.73152
    CHANNELS 3 Zrotation Xrotation Yrotation
    JOINT chest
    {
      OFFSET 0.0 11.7043 -0.48768
      CHANNELS 3 Zrotation Xrotation Yrotation
      JOINT neck
      {
        OFFSET 0.0 22.1894 -2.19456
        CHANNELS 3 Zrotation Xrotation Yrotation
        JOINT head
        {
          OFFSET -0.24384 7.07133 1.2192
          CHANNELS 3 Zrotation Xrotation Yrotation
          JOINT leftEye
          {
            OFFSET 4.14528 8.04674 8.04672
            CHANNELS 3 Zrotation Xrotation Yrotation
            End Site
            {
              OFFSET 1.0 0.0 0.0
            }
          }
          JOINT rightEye
          {
            OFFSET -3.6576 8.04674 8.04672
            CHANNELS 3 Zrotation Xrotation Yrotation
            End Site
            {
              OFFSET 1.0 0.0 0.0
            }
          }
        }
      }
      JOINT rCollar
      {
        OFFSET -2.68224 19.2634 -4.8768
        CHANNELS 3 Zrotation Xrotation Yrotation
        JOINT rShldr
        {
          OFFSET -8.77824 -1.95073 1.46304
          CHANNELS 3 Zrotation Xrotation Yrotation
          JOINT rForeArm
          {
            OFFSET -28.1742 -1.7115 0.48768
            CHANNELS 3 Zrotation Xrotation Yrotation
            JOINT rHand
            {
              OFFSET -22.5879 0.773209 7.07136
              CHANNELS 3 Zrotation Xrotation Yrotation
              JOINT rThumb1
              {
                OFFSET -1.2192 -0.487915 3.41376
                CHANNELS 3 Zrotation Xrotation Yrotation
                JOINT rThumb2
                {
                  OFFSET -3.37035 -0.52449 3.41376
                  CHANNELS 3 Zrotation Xrotation Yrotation
                  End Site
                  {
                    OFFSET -1.78271 -1.18214 1.43049
                  }
                }
              }
              JOINT rIndex1
              {
                OFFSET -7.75947 0.938293 5.60832
                CHANNELS 3 Zrotation Xrotation Yrotation
                JOINT rIndex2
                {
                  OFFSET -2.54057 -0.884171 1.56538
                  CHANNELS 3 Zrotation Xrotation Yrotation
                  End Site
                  {
                    OFFSET -1.62519 -0.234802 1.16502
                  }
                }
              }
              JOINT rMid1
              {
                OFFSET -8.24714 1.18213 3.41376
                CHANNELS 3 Zrotation Xrotation Yrotation
                JOINT rMid2
                {
                  OFFSET -3.10165 -0.590103 1.0647
                  CHANNELS 3 Zrotation Xrotation Yrotation
                  End Site
                  {
                    OFFSET -2.48547 -0.328903 0.83742
                  }
                }
              }
              JOINT rRing1
              {
                OFFSET -8.82822 0.546677 1.51678
                CHANNELS 3 Zrotation Xrotation Yrotation
                JOINT rRing2
                {
                  OFFSET -2.60934 -0.819778 -0.0198488
                  CHANNELS 3 Zrotation Xrotation Yrotation
                  End Site
                  {
                    OFFSET -2.33842 -0.294052 0.168128
                  }
                }
              }
              JOINT rPinky1
              {
                OFFSET -8.27202 -0.0477905 -0.4584
                CHANNELS 3 Zrotation Xrotation Yrotation
                JOINT rPinky2
                {
                  OFFSET -1.82734 -0.647385 -0.700984
                  CHANNELS 3 Zrotation Xrotation Yrotation
                  End Site
                  {
                    OFFSET -1.69225 -0.51767 -0.607171
                  }
                }
              }
            }
          }
        }
      }
      JOINT lCollar
      {
        OFFSET 2.68224 19.2634 -4.8768
        CHANNELS 3 Zrotation Xrotation Yrotation
        JOINT lShldr
        {
          OFFSET 8.77824 -1.95073 1.46304
          CHANNELS 3 Zrotation Xrotation Yrotation
          JOINT lForeArm
          {
            OFFSET 28.1742 -1.7115 0.48768
            CHANNELS 3 Zrotation Xrotation Yrotation
            JOINT lHand
            {
              OFFSET 22.5879 0.773209 7.07136
              CHANNELS 3 Zrotation Xrotation Yrotation
              JOINT lThumb1
              {
                OFFSET 1.2192 -0.487915 3.41376
                CHANNELS 3 Zrotation Xrotation Yrotation
                JOINT lThumb2
                {
                  OFFSET 3.37035 -0.52449 3.41376
                  CHANNELS 3 Zrotation Xrotation Yrotation
                  End Site
                  {
                    OFFSET 1.78271 -1.18214 1.43049
                  }
                }
              }
              JOINT lIndex1
              {
                OFFSET 7.75947 0.938293 5.60832
                CHANNELS 3 Zrotation Xrotation Yrotation
                JOINT lIndex2
                {
                  OFFSET 2.54057 -0.884171 1.56538
                  CHANNELS 3 Zrotation Xrotation Yrotation
                  End Site
                  {
                    OFFSET 1.62519 -0.234802 1.16502
                  }
                }
              }
              JOINT lMid1
              {
                OFFSET 8.24714 1.18213 3.41376
                CHANNELS 3 Zrotation Xrotation Yrotation
                JOINT lMid2
                {
                  OFFSET 3.10165 -0.590103 1.0647
                  CHANNELS 3 Zrotation Xrotation Yrotation
                  End Site
                  {
                    OFFSET 2.48547 -0.328903 0.83742
                  }
                }
              }
              JOINT lRing1
              {
                OFFSET 8.82822 0.546677 1.51678
                CHANNELS 3 Zrotation Xrotation Yrotation
                JOINT lRing2
                {
                  OFFSET 2.60934 -0.819778 -0.0198488
                  CHANNELS 3 Zrotation Xrotation Yrotation
                  End Site
                  {
                    OFFSET 2.33842 -0.294052 0.168128
                  }
                }
              }
              JOINT lPinky1
              {
                OFFSET 8.27202 -0.0477905 -0.4584
                CHANNELS 3 Zrotation Xrotation Yrotation
                JOINT lPinky2
                {
                  OFFSET 1.82734 -0.647385 -0.700984
                  CHANNELS 3 Zrotation Xrotation Yrotation
                  End Site
                  {
                    OFFSET 1.69225 -0.51767 -0.607171
                  }
                }
              }
            }
          }
        }
      }
    }
  }
  JOINT rButtock
  {
    OFFSET -8.77824 4.35084 1.2192
    CHANNELS 3 Zrotation Xrotation Yrotation
    JOINT rThigh
    {
      OFFSET 0.0 -1.70687 -2.19456
      CHANNELS 3 Zrotation Xrotation Yrotation
      JOINT rShin
      {
        OFFSET 0.0 -36.8199 0.73152
        CHANNELS 3 Zrotation Xrotation Yrotation
        JOINT rFoot
        {
          OFFSET 0.73152 -45.1104 -5.12064
          CHANNELS 3 Zrotation Xrotation Yrotation
          End Site
          {
            OFFSET -1.1221 -3.69964 12.103
          }
        }
      }
    }
  }
  JOINT lButtock
  {
    OFFSET 8.77824 4.35084 1.2192
    CHANNELS 3 Zrotation Xrotation Yrotation
    JOINT lThigh
    {
      OFFSET 0.0 -1.70687 -2.19456
      CHANNELS 3 Zrotation Xrotation Yrotation
      JOINT lShin
      {
        OFFSET 0.0 -36.8199 0.73152
        CHANNELS 3 Zrotation Xrotation Yrotation
        JOINT lFoot
        {
          OFFSET -0.73152 -45.1104 -5.12064
          CHANNELS 3 Zrotation Xrotation Yrotation
          End Site
          {
            OFFSET 1.1221 -3.69964 12.103
          }
        }
      }
    }
  }
}
MOTION
Frames: 8
Frame Time: 0.00833333
11.836368199999999 83.7172 18.855999999999995 -5.5664 0.411 5.3979 6.74828 3.58936 3.62792 0.790654 -5.88066 1.08186 5.79338 -5.34275 -0.129462 -8.67089 -10.0043 -3.1791 -0.0 0.0 0.0 -0.0 0.0 0.0 0.0 0.0 0.0 0.0 0.0 0.0 0.0 0.0 0.0 -0.00152077 -1.10435 -0.155226 -2.78917e-10 -3.57422e-10 2.90364e-10 -4.80739e-10 -6.18706e-10 5.00451e-10 -2.78911e-10 -3.57425e-10 2.9036e-10 7.73091 5.47488 0.417314 -2.78917e-10 -3.57424e-10 2.90362e-10 2.90554 0.965183 0.102902 -2.78914e-10 -3.57422e-10 2.90359e-10 10.2786 0.731801 0.0259123 -2.7892e-10 -3.5742e-10 2.90362e-10 2.22167 -0.733487 -0.20892 0.0 0.0 0.0 0.0 0.0 0.0 0.0 0.0 0.0 0.0120396 -3.12268 0.43931 -6.52117e-10 -3.93868e-11 -6.35852e-10 -1.12352e-09 -6.62388e-11 -1.09812e-09 -6.52117e-10 -3.9388e-11 -6.35851e-10 -7.73091 5.47488 -0.417314 -6.52116e-10 -3.93879e-11 -6.35852e-10 -2.90554 0.965183 -0.102902 -6.52121e-10 -3.93879e-11 -6.3585e-10 -10.2786 0.731801 -0.0259123 -6.52114e-10 -3.93858e-11 -6.35852e-10 -2.22167 -0.733487 0.20892 -2.03217e-16 0.0 -3.88251e-19 -5.96796 -3.95383 -16.4212 -0.136362 22.6621 0.210735 -1.07255 2.97016 -36.4202 2.03217e-16 0.0 3.88251e-19 17.3174 -21.6298 13.0729 0.0944871 24.8158 -0.242849 2.80558 -0.92626 29.1436
12.267539 83.8084 19.288999999999987 -5.7284 0.3211 5.3439 6.85023 3.58567 3.581 0.856291 -5.86184 1.07008 5.80634 -5.41811 -0.122095 -8.65356 -9.76181 -3.15616 -0.0 0.0 0.0 -0.0 0.0 0.0 0.0 0.0 0.0 0.0 0.0 0.0 0.0 0.0 0.0 -0.0015069 -1.10443 -0.155237 5.93943e-10 -5.51334e-10 3.82631e-10 1.02662e-09 -9.52975e-10 6.59402e-10 5.9395e-10 -5.51338e-10 3.82629e-10 7.73091 5.47488 0.417314 5.93944e-10 -5.51337e-10 3.82627e-10 2.90554 0.965183 0.102902 5.93948e-10 -5.51335e-10 3.82624e-10 10.2786 0.731801 0.0259123 5.93939e-10 -5.51332e-10 3.82625e-10 2.22167 -0.733487 -0.20892 0.0 0.0 0.0 0.0 0.0 0.0 0.0 0.0 0.0 0.0138295 -3.34259 0.470318 5.48999e-10 9.20694e-12 -6.42247e-10 9.51743e-10 1.76035e-11 -1.1075e-09 5.49001e-10 9.20498e-12 -6.42243e-10 -7.73091 5.47488 -0.417314 5.49001e-10 9.20526e-12 -6.42247e-10 -2.90554 0.965183 -0.102902 5.48997e-10 9.20514e-12 -6.42243e-10 -10.2786 0.731801 -0.0259123 5.49002e-10 9.20735e-12 -6.42245e-10 -2.22167 -0.733487 0.20892 -2.03217e-16 0.0 -3.88251e-19 -6.35344 -4.01774 -16.9714 -0.142805 23.1791 0.202782 -0.560767 3.68745 -35.9924 2.03217e-16 0.0 3.88251e-19 16.9888 -21.3069 12.6173 0.0944986 24.8578 -0.244295 2.90768 -1.05051 29.557
12.692702 83.894 19.721999999999994 -5.8886 0.1874 5.2918 6.89911 3.57491 3.53278 0.956948 -5.85871 1.05924 5.83322 -5.44829 -0.100856 -8.64088 -9.57506 -3.11085 -0.0 0.0 0.0 -0.0 0.0 0.0 0.0 0.0 0.0 0.0 0.0 0.0 0.0 0.0 0.0 -0.00152377 -1.11455 -0.156659 1.11004e-09 -6.32852e-10 5.22737e-10 1.91774e-09 -1.0931e-09 9.01502e-10 1.11005e-09 -6.32857e-10 5.22734e-10 7.73091 5.47488 0.417314 1.11004e-09 -6.32855e-10 5.22731e-10 2.90554 0.965183 0.102902 1.11005e-09 -6.32853e-10 5.22729e-10 10.2786 0.731801 0.0259123 1.11004e-09 -6.3285e-10 5.22727e-10 2.22167 -0.733487 -0.20892 0.0 0.0 0.0 0.0 0.0 0.0 0.0 0.0 0.0 0.0159298 -3.60096 0.506756 1.18164e-09 -8.6942e-11 -6.59361e-10 2.0443e-09 -1.49104e-10 -1.13635e-09 1.18165e-09 -8.6944e-11 -6.59354e-10 -7.73091 5.47488 -0.417314 1.18165e-09 -8.69435e-11 -6.59361e-10 -2.90554 0.965183 -0.102902 1.18164e-09 -8.69437e-11 -6.59356e-10 -10.2786 0.731801 -0.0259123 1.18165e-09 -8.69417e-11 -6.59358e-10 -2.22167 -0.733487 0.20892 -2.03217e-16 0.0 -3.88251e-19 -6.75872 -4.15232 -17.5421 -0.149615 23.7738 0.199009 -0.143007 4.30001 -35.5997 2.03217e-16 0.0 3.88251e-19 16.667 -20.9853 12.2146 0.0945391 24.9005 -0.246079 3.02014 -1.19682 29.9444
13.111889999999999 83.9698 20.14699999999999 -6.0268 0.0432 5.2539 6.88598 3.55275 3.48577 1.10234 -5.87693 1.05032 5.8849 -5.41663 -0.0575397 -8.64744 -9.47002 -3.0323 -0.0 0.0 0.0 -0.0 0.0 0.0 0.0 0.0 0.0 0.0 0.0 0.0 0.0 0.0 0.0 -0.00160702 -1.14638 -0.161135 1.08444e-09 -5.2036e-10 7.72133e-10 1.87307e-09 -8.97917e-10 1.3333e-09 1.08444e-09 -5.20364e-10 7.72125e-10 7.73091 5.47488 0.417314 1.08444e-09 -5.20363e-10 7.72125e-10 2.90554 0.965183 0.102902 1.08444e-09 -5.20361e-10 7.72124e-10 10.2786 0.731801 0.0259123 1.08443e-09 -5.20358e-10 7.72122e-10 2.22167 -0.733487 -0.20892 0.0 0.0 0.0 0.0 0.0 0.0 0.0 0.0 0.0 0.0186466 -3.9126 0.550734 9.10437e-10 -4.64574e-10 -6.9025e-10 1.57406e-09 -8.0315e-10 -1.19059e-09 9.10435e-10 -4.64575e-10 -6.9024e-10 -7.73091 5.47488 -0.417314 9.10439e-10 -4.64574e-10 -6.90249e-10 -2.90554 0.965183 -0.102902 9.10434e-10 -4.64574e-10 -6.90245e-10 -10.2786 0.731801 -0.0259123 9.1044e-10 -4.64573e-10 -6.90249e-10 -2.22167 -0.733487 0.20892 -2.03217e-16 0.0 -3.88251e-19 -7.19746 -4.37341 -18.1391 -0.157513 24.471 0.19928 0.206734 4.83907 -35.2105 2.03217e-16 0.0 3.88251e-19 16.3469 -20.6659 11.8645 0.0949275 24.9422 -0.248185 3.14747 -1.37275 30.3105
13.51965 84.0338 20.567999999999984 -6.1501 -0.1041 5.2216 6.83807 3.52368 3.43958 1.27903 -5.90873 1.04275 5.95475 -5.34806 0.00433138 -8.66863 -9.40381 -2.9239 -0.0 0.0 0.0 -0.0 0.0 0.0 0.0 0.0 0.0 0.0 0.0 0.0 0.0 0.0 0.0 -0.00176197 -1.20088 -0.168797 7.69062e-10 -2.96767e-10 1.09105e-09 1.32781e-09 -5.10687e-10 1.88577e-09 7.69065e-10 -2.9677e-10 1.09103e-09 7.73091 5.47488 0.417314 7.69063e-10 -2.9677e-10 1.09104e-09 2.90554 0.965183 0.102902 7.69068e-10 -2.96768e-10 1.09104e-09 10.2786 0.731801 0.0259123 7.69057e-10 -2.96765e-10 1.09104e-09 2.22167 -0.733487 -0.20892 0.0 0.0 0.0 0.0 0.0 0.0 0.0 0.0 0.0 0.0222829 -4.27544 0.601991 1.35199e-10 -1.01949e-09 -7.20817e-10 2.3214e-10 -1.76416e-09 -1.24524e-09 1.35191e-10 -1.01949e-09 -7.20805e-10 -7.73091 5.47488 -0.417314 1.35201e-10 -1.01948e-09 -7.20815e-10 -2.90554 0.965183 -0.102902 1.35196e-10 -1.01949e-09 -7.20813e-10 -10.2786 0.731801 -0.0259123 1.35203e-10 -1.01948e-09 -7.20822e-10 -2.22167 -0.733487 0.20892 -2.03217e-16 0.0 -3.88251e-19 -7.66689 -4.66477 -18.7679 -0.166491 25.2551 0.202484 0.512955 5.33655 -34.8081 2.03217e-16 0.0 3.88251e-19 16.0206 -20.3415 11.5185 0.0954376 24.9764 -0.250374 3.29445 -1.57424 30.7114
13.91891 84.0837 20.987999999999985 -6.2428 -0.2454 5.1896 6.75497 3.49409 3.38886 1.47522 -5.94723 1.03472 6.023 -5.26139 0.0689169 -8.67515 -9.35021 -2.80749 -0.0 0.0 0.0 -0.0 0.0 0.0 0.0 0.0 0.0 0.0 0.0 0.0 0.0 0.0 0.0 -0.00191743 -1.25105 -0.175852 3.91095e-10 -8.35289e-11 1.37104e-09 6.74535e-10 -1.41583e-10 2.37094e-09 3.91096e-10 -8.35301e-11 1.37103e-09 7.73091 5.47488 0.417314 3.91095e-10 -8.35312e-11 1.37104e-09 2.90554 0.965183 0.102902 3.911e-10 -8.35305e-11 1.37104e-09 10.2786 0.731801 0.0259123 3.91088e-10 -8.35263e-11 1.37104e-09 2.22167 -0.733487 -0.20892 0.0 0.0 0.0 0.0 0.0 0.0 0.0 0.0 0.0 0.0265916 -4.65772 0.656056 -6.89327e-10 -1.52217e-09 -7.54759e-10 -1.19459e-09 -2.63465e-09 -1.30576e-09 -6.89341e-10 -1.52216e-09 -7.54744e-10 -7.73091 5.47488 -0.417314 -6.89326e-10 -1.52216e-09 -7.54756e-10 -2.90554 0.965183 -0.102902 -6.89332e-10 -1.52216e-09 -7.54756e-10 -10.2786 0.731801 -0.0259123 -6.89324e-10 -1.52216e-09 -7.54768e-10 -2.22167 -0.733487 0.20892 -2.03217e-16 0.0 -3.88251e-19 -8.14773 -4.99946 -19.4134 -0.17551 26.0816 0.210032 0.710149 5.6896 -34.4679 2.03217e-16 0.0 3.88251e-19 15.702 -20.0173 11.212 0.095524 25.0113 -0.252863 3.44866 -1.78647 31.095
14.30536 84.1204 21.403999999999982 -6.3137 -0.3836 5.1558 6.63631 3.47035 3.32825 1.6791 -5.98554 1.02442 6.07006 -5.17539 0.120391 -8.6378 -9.28301 -2.70494 -0.0 0.0 0.0 -0.0 0.0 0.0 0.0 0.0 0.0 0.0 0.0 0.0 0.0 0.0 0.0 -0.00197831 -1.26992 -0.178505 1.77709e-10 -2.09917e-12 1.50369e-09 3.05826e-10 -7.79236e-13 2.60085e-09 1.7771e-10 -2.09917e-12 1.50366e-09 7.73091 5.47488 0.417314 1.77709e-10 -2.10105e-12 1.50368e-09 2.90554 0.965183 0.102902 1.77714e-10 -2.10066e-12 1.50368e-09 10.2786 0.731801 0.0259123 1.77703e-10 -2.09638e-12 1.50368e-09 2.22167 -0.733487 -0.20892 0.0 0.0 0.0 0.0 0.0 0.0 0.0 0.0 0.0 0.0311024 -5.02766 0.708429 -1.1084e-09 -1.7431e-09 -7.95768e-10 -1.91929e-09 -3.01712e-09 -1.37756e-09 -1.10842e-09 -1.7431e-09 -7.95753e-10 -7.73091 5.47488 -0.417314 -1.1084e-09 -1.74309e-09 -7.95765e-10 -2.90554 0.965183 -0.102902 -1.10841e-09 -1.74309e-09 -7.95766e-10 -10.2786 0.731801 -0.0259123 -1.1084e-09 -1.7431e-09 -7.95781e-10 -2.22167 -0.733487 0.20892 -2.03217e-16 0.0 -3.88251e-19 -8.61929 -5.35105 -20.0602 -0.183622 26.9062 0.223369 0.736397 5.79312 -34.2644 2.03217e-16 0.0 3.88251e-19 15.4041 -19.6992 10.98 0.0946436 25.0555 -0.25587 3.59651 -1.99538 31.4093
14.678889999999999 84.1444 21.812999999999988 -6.3684 -0.5175 5.1196 6.46834 3.45074 3.25956 1.89382 -6.02936 1.01252 6.07968 -5.08043 0.146663 -8.52586 -9.18564 -2.62967 -0.0 0.0 0.0 -0.0 0.0 0.0 0.0 0.0 0.0 0.0 0.0 0.0 0.0 0.0 0.0 -0.00185511 -1.23205 -0.17318 2.25919e-10 -1.30315e-10 1.41915e-09 3.89448e-10 -2.2309e-10 2.45451e-09 2.2592e-10 -1.30314e-10 1.41913e-09 7.73091 5.47488 0.417314 2.25919e-10 -1.30316e-10 1.41915e-09 2.90554 0.965183 0.102902 2.25924e-10 -1.30316e-10 1.41915e-09 10.2786 0.731801 0.0259123 2.25913e-10 -1.30312e-10 1.41915e-09 2.22167 -0.733487 -0.20892 0.0 0.0 0.0 0.0 0.0 0.0 0.0 0.0 0.0 0.035701 -5.38837 0.759542 -8.82989e-10 -1.52701e-09 -8.62457e-10 -1.52794e-09 -2.64259e-09 -1.49224e-09 -8.83005e-10 -1.52701e-09 -8.62442e-10 -7.73091 5.47488 -0.417314 -8.82988e-10 -1.527e-09 -8.62456e-10 -2.90554 0.965183 -0.102902 -8.82997e-10 -1.527e-09 -8.62456e-10 -10.2786 0.731801 -0.0259123 -8.82986e-10 -1.52701e-09 -8.62471e-10 -2.22167 -0.733487 0.20892 -2.03217e-16 0.0 -3.88251e-19 -9.08971 -5.71694 -20.725 -0.191104 27.7484 0.245053 0.532147 5.55171 -34.2417 2.03217e-16 0.0 3.88251e-19 15.131 -19.3876 10.8518 0.0922129 25.1142 -0.259311 3.73285 -2.2017 31.6214
